<?xml version="1.0" encoding="UTF-8"?>
<svg width="160px" height="130px" viewBox="0 0 160 130" version="1.1" xmlns="http://www.w3.org/2000/svg" xmlns:xlink="http://www.w3.org/1999/xlink">
    <!-- Generator: Sketch 63.1 (92452) - https://sketch.com -->
    <title>wy_packages</title>
    <desc>Created with Sketch.</desc>
    <defs>
        <polygon id="path-1" points="75 139 150.251263 163.748737 175 239 96.2132034 217.786797"></polygon>
        <filter x="-9.2%" y="-6.9%" width="122.1%" height="122.1%" filterUnits="objectBoundingBox" id="filter-2">
            <feMorphology radius="1.5" operator="erode" in="SourceAlpha" result="shadowSpreadOuter1"></feMorphology>
            <feOffset dx="2" dy="4" in="shadowSpreadOuter1" result="shadowOffsetOuter1"></feOffset>
            <feGaussianBlur stdDeviation="5" in="shadowOffsetOuter1" result="shadowBlurOuter1"></feGaussianBlur>
            <feColorMatrix values="0 0 0 0 0   0 0 0 0 0   0 0 0 0 0  0 0 0 0.5 0" type="matrix" in="shadowBlurOuter1"></feColorMatrix>
        </filter>
    </defs>
    <g id="Page-1" stroke="none" stroke-width="1" fill="none" fill-rule="evenodd">
        <g id="wy_packages" transform="translate(-45.000000, -107.000000)">
            <g id="Rectangle" transform="translate(125.000000, 189.000000) rotate(-45.000000) translate(-125.000000, -189.000000) ">
                <use fill="black" fill-opacity="1" filter="url(#filter-2)" xlink:href="#path-1"></use>
                <use fill="#000000" fill-rule="evenodd" xlink:href="#path-1"></use>
            </g>
            <polygon id="Rectangle" fill="#216E8A" transform="translate(125.000000, 169.500000) rotate(-45.000000) translate(-125.000000, -169.500000) " points="75 119.5 150.251263 144.248737 175 219.5 96.2132034 198.286797"></polygon>
            <polygon id="schwarz_multiply" fill-opacity="0.4" fill="#000000" transform="translate(125.000000, 169.500000) rotate(-45.000000) translate(-125.000000, -169.500000) " points="75 119.5 150.251263 144.248737 175 219.5 96.2132034 198.286797"></polygon>
            <polygon id="Rectangle" fill="#216E8A" transform="translate(125.000000, 150.000000) rotate(-45.000000) translate(-125.000000, -150.000000) " points="75 100 150.251263 124.748737 175 200 96.2132034 178.786797"></polygon>
            <path d="M127.922426,135.150208 C128.097475,134.866475 128.488882,135.047251 129.222783,135.183559 C130.863934,135.488425 133.377624,135.913475 134.957658,136.276931 C135.214128,136.343032 135.227332,136.584401 135.107699,136.827773 C134.440916,138.129763 133.842652,139.124484 133.190473,140.232978 C131.756779,142.670004 128.939306,147.661034 128.989319,147.744461 C129.039333,147.827889 142.660473,147.744461 149.494949,147.744461 C149.75122,147.748668 149.976281,147.761187 149.995087,148.042817 C149.999488,149.205294 150.003489,150.636382 149.995087,151.873673 C149.995087,152.121953 149.882556,152.243038 149.494949,152.251351 C144.268414,152.254956 129.189374,151.984242 129.039333,152.318153 C128.932304,152.556417 130.426614,154.976016 130.989869,155.957016 C131.94143,157.614449 132.857081,159.161915 133.793438,160.863716 C134.226257,161.650419 134.493731,162.07006 135.152612,163.159927 C135.423486,163.637757 135.169216,163.683727 134.868834,163.766954 C134.0175,163.960751 133.259492,164.121697 132.005147,164.399822 C128.673033,165.138752 128.135385,165.394342 127.78899,164.870642 C126.305282,162.166508 124.600314,159.49893 123.187727,156.75824 C122.829228,156.062577 121.570583,153.686845 121.387232,153.653494 C121.203882,153.620143 117.828855,155.131754 116.585914,155.656556 C113.818554,156.825042 106.280985,159.985975 105.457859,160.330401 C104.620129,160.680937 104.532605,160.818647 104.044971,160.455592 C103.20524,159.757726 101.09056,158.204952 100.081383,157.259006 C99.9156371,157.077128 100.010263,156.936913 100.299743,156.794696 C100.566416,156.663696 103.511524,155.497713 104.532505,155.088989 C108.538505,153.484936 112.103983,152.034119 116.185704,150.348442 C116.285732,150.298365 116.804874,150.121695 116.485786,149.947829 C115.360177,149.353521 113.981999,148.864373 112.78477,148.34538 C109.968097,147.124313 107.791099,146.254183 104.940317,145.039827 C103.075805,144.245612 101.248403,143.450497 100.623932,143.123197 C100.18111,142.891142 100.152002,142.686529 100.40017,142.438049 C100.772472,142.101835 103.661165,139.895563 104.028766,139.620943 C104.394867,139.364351 104.576317,139.360545 104.931814,139.510975 C105.931589,139.934021 107.776395,140.696487 108.783672,141.134456 C111.317668,142.236141 113.618299,143.070716 116.202409,144.13905 C117.867766,144.827602 121.2705,146.392494 121.387132,146.342418 C121.503764,146.292341 123.250544,143.177379 123.887819,142.135988 C125.303407,139.822952 126.491434,137.391435 127.922426,135.150208 Z" id="wy_x5F_signet" fill="#FFFFFF"></path>
        </g>
    </g>
</svg>